<svg width="22" height="20" viewBox="0 0 22 20" fill="none" xmlns="http://www.w3.org/2000/svg">
<path d="M8.56146 8.88441C9.54146 9.46141 10.2705 9.75043 10.9995 9.75043C11.7295 9.75043 12.4585 9.46241 13.4395 8.88441L16.3815 7.14438C16.7385 6.93438 16.8564 6.47442 16.6454 6.11742C16.4354 5.76042 15.9755 5.64236 15.6185 5.85336L12.6775 7.59242C11.2035 8.45942 10.7955 8.45942 9.32348 7.59242L6.38148 5.85238C6.02548 5.64138 5.56543 5.76035 5.35443 6.11635C5.14343 6.47235 5.2625 6.9324 5.61849 7.1434L8.56146 8.88441Z" fill="#1B8354"/>
<path fill-rule="evenodd" clip-rule="evenodd" d="M8.0802 19.2084C9.0622 19.2334 10.0312 19.2465 11.0002 19.2465C11.9692 19.2465 12.9382 19.2334 13.9202 19.2084L13.9216 19.2084C17.1587 19.1264 18.9424 19.0812 20.2872 17.7374C21.6292 16.3844 21.6662 14.6484 21.7332 11.4954C21.7542 10.4884 21.7542 9.51042 21.7332 8.50342C21.6662 5.35042 21.6292 3.6134 20.2842 2.2584C18.9412 0.917398 17.1573 0.871453 13.9193 0.789453C11.9543 0.739453 10.0442 0.739453 8.07923 0.789453L8.07788 0.789487C4.84073 0.871466 3.05705 0.916636 1.71223 2.26045C0.370234 3.61345 0.333238 5.34944 0.266238 8.50244C0.245238 9.50944 0.245238 10.4874 0.266238 11.4944C0.333238 14.6474 0.370262 16.3845 1.71526 17.7395C3.05826 19.0805 4.8422 19.1264 8.0802 19.2084ZM2.77727 16.6794C1.85627 15.7524 1.82726 14.4074 1.76526 11.4624C1.74426 10.4764 1.74426 9.5184 1.76526 8.5334C1.82726 5.5884 1.85625 4.24446 2.77425 3.31846C3.69317 2.39953 5.07899 2.36441 8.11647 2.28742C10.0565 2.23742 11.9423 2.2374 13.8813 2.2874C16.9193 2.3644 18.3053 2.40041 19.2223 3.31641C20.1433 4.24341 20.1722 5.5884 20.2342 8.5334C20.2552 9.5194 20.2552 10.4774 20.2342 11.4624C20.1722 14.4074 20.1432 15.7514 19.2252 16.6774C18.3064 17.5963 16.9208 17.6314 13.884 17.7084L13.8823 17.7084C11.9423 17.7584 10.0573 17.7584 8.11829 17.7084C5.08029 17.6314 3.69427 17.5954 2.77727 16.6794Z" fill="#1B8354"/>
</svg>
