<svg width="22" height="22" viewBox="0 0 22 22" fill="none" xmlns="http://www.w3.org/2000/svg">
<path d="M11.875 1.66675C11.875 1.1835 11.4833 0.791748 11 0.791748C10.5168 0.791748 10.125 1.1835 10.125 1.66675V10.1251H1.66669C1.18344 10.1251 0.791687 10.5168 0.791687 11.0001C0.791687 11.4833 1.18344 11.8751 1.66669 11.8751H10.125V20.3334C10.125 20.8167 10.5168 21.2084 11 21.2084C11.4833 21.2084 11.875 20.8167 11.875 20.3334V11.8751H20.3334C20.8166 11.8751 21.2084 11.4833 21.2084 11.0001C21.2084 10.5168 20.8166 10.1251 20.3334 10.1251H11.875V1.66675Z" fill="#067647"/>
</svg>
