<svg width="18" height="14" viewBox="0 0 18 14" fill="none" xmlns="http://www.w3.org/2000/svg">
<path fill-rule="evenodd" clip-rule="evenodd" d="M8.99999 10.125C7.2741 10.125 5.87499 8.72588 5.87499 6.99999C5.87499 5.2741 7.2741 3.87499 8.99999 3.87499C10.7259 3.87499 12.125 5.2741 12.125 6.99999C12.125 8.72588 10.7259 10.125 8.99999 10.125ZM7.12499 6.99999C7.12499 8.03552 7.96446 8.87499 8.99999 8.87499C10.0355 8.87499 10.875 8.03552 10.875 6.99999C10.875 5.96446 10.0355 5.12499 8.99999 5.12499C7.96446 5.12499 7.12499 5.96446 7.12499 6.99999Z" fill="white"/>
<path fill-rule="evenodd" clip-rule="evenodd" d="M8.99999 0.541656C6.85786 0.541656 5.02162 1.4845 3.60025 2.59414C2.1776 3.70479 1.12604 5.01644 0.537832 5.84126L0.493483 5.9031C0.282519 6.1965 0.0416565 6.53149 0.0416565 6.99999C0.0416565 7.4685 0.28252 7.80348 0.493483 8.09688L0.537832 8.15873C1.12604 8.98354 2.1776 10.2952 3.60025 11.4058C5.02162 12.5155 6.85786 13.4583 8.99999 13.4583C11.1421 13.4583 12.9784 12.5155 14.3997 11.4058C15.8224 10.2952 16.8739 8.98354 17.4621 8.15872L17.5065 8.09688C17.7175 7.80348 17.9583 7.46849 17.9583 6.99999C17.9583 6.53148 17.7175 6.1965 17.5065 5.9031L17.4621 5.84126C16.8739 5.01644 15.8224 3.70479 14.3997 2.59414C12.9784 1.4845 11.1421 0.541656 8.99999 0.541656ZM1.55555 6.56703C2.10572 5.79556 3.07697 4.58847 4.36946 3.57944C5.66322 2.56942 7.23444 1.79166 8.99999 1.79166C10.7655 1.79166 12.3368 2.56942 13.6305 3.57944C14.923 4.58847 15.8943 5.79556 16.4444 6.56703C16.5805 6.75788 16.6453 6.85107 16.6839 6.92526C16.7085 6.97242 16.7084 6.98534 16.7083 6.998L16.7083 6.99999L16.7083 7.00198C16.7084 7.01464 16.7085 7.02757 16.6839 7.07472C16.6453 7.14891 16.5805 7.2421 16.4444 7.43295C15.8943 8.20442 14.923 9.41151 13.6305 10.4205C12.3368 11.4306 10.7655 12.2083 8.99999 12.2083C7.23444 12.2083 5.66322 11.4306 4.36946 10.4205C3.07697 9.41151 2.10572 8.20442 1.55555 7.43295C1.41945 7.2421 1.35467 7.14891 1.31606 7.07472C1.29151 7.02757 1.29158 7.01464 1.29165 7.00198L1.29166 6.99999L1.29165 6.998C1.29158 6.98534 1.29151 6.97242 1.31606 6.92526C1.35467 6.85107 1.41945 6.75788 1.55555 6.56703Z" fill="white"/>
</svg>
