<svg width="18" height="18" viewBox="0 0 18 18" fill="none" xmlns="http://www.w3.org/2000/svg">
<path d="M8.79166 5.24999C8.79166 4.90481 8.51183 4.62499 8.16666 4.62499C7.82148 4.62499 7.54166 4.90481 7.54166 5.24999V7.54166H5.24999C4.90481 7.54166 4.62499 7.82148 4.62499 8.16666C4.62499 8.51183 4.90481 8.79166 5.24999 8.79166H7.54166V11.0833C7.54166 11.4285 7.82148 11.7083 8.16666 11.7083C8.51183 11.7083 8.79166 11.4285 8.79166 11.0833V8.79166H11.0833C11.4285 8.79166 11.7083 8.51183 11.7083 8.16666C11.7083 7.82148 11.4285 7.54166 11.0833 7.54166H8.79166V5.24999Z" fill="white"/>
<path fill-rule="evenodd" clip-rule="evenodd" d="M0.0416565 8.16666C0.0416565 3.67934 3.67934 0.0416565 8.16666 0.0416565C12.654 0.0416565 16.2917 3.67934 16.2917 8.16666C16.2917 10.1853 15.5555 12.0321 14.3369 13.453L17.7753 16.8914C18.0193 17.1355 18.0193 17.5312 17.7753 17.7753C17.5312 18.0193 17.1355 18.0193 16.8914 17.7753L13.453 14.3369C12.0321 15.5555 10.1853 16.2917 8.16666 16.2917C3.67934 16.2917 0.0416565 12.654 0.0416565 8.16666ZM8.16666 1.29166C4.3697 1.29166 1.29166 4.3697 1.29166 8.16666C1.29166 11.9636 4.3697 15.0417 8.16666 15.0417C11.9636 15.0417 15.0417 11.9636 15.0417 8.16666C15.0417 4.3697 11.9636 1.29166 8.16666 1.29166Z" fill="white"/>
</svg>
