<svg width="16" height="18" viewBox="0 0 16 18" fill="none" xmlns="http://www.w3.org/2000/svg">
<path fill-rule="evenodd" clip-rule="evenodd" d="M7.99999 12.9584C10.6464 12.9584 12.7917 10.8131 12.7917 8.16675V4.83342C12.7917 2.18705 10.6464 0.041748 7.99999 0.041748C5.35363 0.041748 3.20833 2.18705 3.20833 4.83342V8.16675C3.20833 10.8131 5.35363 12.9584 7.99999 12.9584ZM7.99999 1.29175C6.04399 1.29175 4.45833 2.87741 4.45833 4.83342V8.16675C4.45833 10.1228 6.04399 11.7084 7.99999 11.7084C9.74274 11.7084 11.1915 10.4497 11.4867 8.79175H9.66666C9.32148 8.79175 9.04166 8.51193 9.04166 8.16675C9.04166 7.82157 9.32148 7.54175 9.66666 7.54175H11.5417V5.45842H9.66666C9.32148 5.45842 9.04166 5.17859 9.04166 4.83342C9.04166 4.48824 9.32148 4.20842 9.66666 4.20842H11.4867C11.1915 2.55049 9.74274 1.29175 7.99999 1.29175Z" fill="#161616"/>
<path d="M1.95833 8.16675C1.95833 7.82157 1.67851 7.54175 1.33333 7.54175C0.98815 7.54175 0.708328 7.82157 0.708328 8.16675C0.708328 11.9833 3.64049 15.115 7.37499 15.432V16.7084H5.49999C5.15482 16.7084 4.87499 16.9882 4.87499 17.3334C4.87499 17.6786 5.15482 17.9584 5.49999 17.9584H10.5C10.8452 17.9584 11.125 17.6786 11.125 17.3334C11.125 16.9882 10.8452 16.7084 10.5 16.7084H8.62499V15.432C12.3595 15.115 15.2917 11.9833 15.2917 8.16675C15.2917 7.82157 15.0118 7.54175 14.6667 7.54175C14.3215 7.54175 14.0417 7.82157 14.0417 8.16675C14.0417 11.5035 11.3367 14.2084 7.99999 14.2084C4.66327 14.2084 1.95833 11.5035 1.95833 8.16675Z" fill="#161616"/>
</svg>
