<svg width="18" height="18" viewBox="0 0 18 18" fill="none" xmlns="http://www.w3.org/2000/svg">
<path fill-rule="evenodd" clip-rule="evenodd" d="M0.0416565 2.54169C0.0416565 1.16098 1.16094 0.041687 2.54166 0.041687C3.92237 0.041687 5.04166 1.16098 5.04166 2.54169C5.04166 3.9224 3.92237 5.04169 2.54166 5.04169C1.16094 5.04169 0.0416565 3.9224 0.0416565 2.54169ZM2.54166 1.29169C1.8513 1.29169 1.29166 1.85133 1.29166 2.54169C1.29166 3.23204 1.8513 3.79169 2.54166 3.79169C3.23201 3.79169 3.79166 3.23204 3.79166 2.54169C3.79166 1.85133 3.23201 1.29169 2.54166 1.29169Z" fill="white"/>
<path fill-rule="evenodd" clip-rule="evenodd" d="M2.29604 6.29169H2.78729C3.14797 6.29165 3.47866 6.29161 3.74767 6.32778C4.0439 6.3676 4.35701 6.46131 4.61453 6.71883C4.87205 6.97635 4.96575 7.28945 5.00558 7.58569C5.04175 7.85469 5.04171 8.18539 5.04167 8.54606L5.04167 15.704C5.04171 16.0647 5.04175 16.3954 5.00558 16.6644C4.96575 16.9606 4.87205 17.2737 4.61453 17.5312C4.35701 17.7887 4.0439 17.8824 3.74767 17.9223C3.47866 17.9584 3.14796 17.9584 2.78728 17.9584H2.29604C1.93536 17.9584 1.60467 17.9584 1.33566 17.9223C1.03942 17.8824 0.726318 17.7887 0.468798 17.5312C0.211279 17.2737 0.117573 16.9606 0.0777453 16.6644C0.0415779 16.3954 0.0416169 16.0647 0.0416594 15.704L0.0416594 8.54607C0.0416169 8.18539 0.0415779 7.8547 0.0777453 7.58569C0.117573 7.28945 0.211279 6.97635 0.468798 6.71883C0.726318 6.46131 1.03942 6.3676 1.33566 6.32778C1.60467 6.29161 1.93536 6.29165 2.29604 6.29169ZM1.35269 7.60272L1.35472 7.60158C1.35633 7.60074 1.3591 7.59939 1.3633 7.59766C1.38145 7.59019 1.42175 7.57745 1.50222 7.56663C1.67782 7.54302 1.92282 7.54169 2.33333 7.54169H2.75C3.1605 7.54169 3.40551 7.54302 3.58111 7.56663C3.66157 7.57745 3.70188 7.59019 3.72003 7.59766C3.72423 7.59939 3.72699 7.60074 3.7286 7.60158L3.73063 7.60272L3.73178 7.60475C3.73262 7.60636 3.73397 7.60913 3.7357 7.61333C3.74316 7.63148 3.75591 7.67178 3.76673 7.75225C3.79034 7.92785 3.79166 8.17285 3.79166 8.58336L3.79166 15.6667C3.79166 16.0772 3.79034 16.3222 3.76673 16.4978C3.75591 16.5783 3.74316 16.6186 3.7357 16.6367C3.73397 16.6409 3.73262 16.6437 3.73178 16.6453L3.73063 16.6473L3.7286 16.6485C3.72699 16.6493 3.72423 16.6507 3.72003 16.6524C3.70188 16.6599 3.66157 16.6726 3.58111 16.6834C3.40551 16.707 3.1605 16.7084 2.75 16.7084H2.33333C1.92282 16.7084 1.67782 16.707 1.50222 16.6834C1.42175 16.6726 1.38145 16.6599 1.3633 16.6524C1.3591 16.6507 1.35633 16.6493 1.35472 16.6485L1.35269 16.6473L1.35155 16.6453C1.3507 16.6437 1.34936 16.6409 1.34763 16.6367C1.34016 16.6186 1.32742 16.5783 1.3166 16.4978C1.29299 16.3222 1.29166 16.0772 1.29166 15.6667L1.29166 8.58336C1.29166 8.17285 1.29299 7.92785 1.3166 7.75225C1.32742 7.67178 1.34016 7.63148 1.34763 7.61333C1.34936 7.60913 1.3507 7.60636 1.35155 7.60475L1.35269 7.60272Z" fill="white"/>
<path fill-rule="evenodd" clip-rule="evenodd" d="M8.54604 6.29169C8.78736 6.29167 9.75924 6.29165 9.94373 6.30856C10.1432 6.32683 10.3605 6.36884 10.5698 6.49129C10.7858 6.61768 10.9657 6.79754 11.0921 7.01356L11.1021 7.03097C11.7602 6.56627 12.5546 6.29189 13.414 6.29189C15.66 6.29189 17.9584 8.20374 17.9584 10.6669L17.9573 15.288C17.9572 15.6486 17.9572 15.9792 17.921 16.2481C17.8811 16.5443 17.7873 16.8573 17.5298 17.1148C17.2723 17.3722 16.9593 17.4659 16.6631 17.5057C16.3941 17.5419 16.0635 17.5418 15.7029 17.5418H15.2127C14.852 17.5418 14.5213 17.5419 14.2523 17.5057C13.9561 17.4659 13.643 17.3722 13.3854 17.1147C13.1279 16.8571 13.0342 16.544 12.9944 16.2478C12.9582 15.9788 12.9583 15.6481 12.9583 15.2874L12.9583 11.5001C12.9583 11.1189 12.6763 10.8751 12.4066 10.8751C11.9755 10.8751 11.7439 11.0404 11.5846 11.3048C11.3974 11.6157 11.2917 12.1074 11.2917 12.7501L11.2917 15.704C11.2917 16.0647 11.2918 16.3954 11.2556 16.6644C11.2158 16.9606 11.122 17.2737 10.8645 17.5312C10.607 17.7887 10.2939 17.8825 9.99768 17.9223C9.72867 17.9584 9.39797 17.9584 9.0373 17.9584H8.54602C8.18535 17.9584 7.85466 17.9584 7.58566 17.9223C7.28942 17.8824 6.97632 17.7887 6.7188 17.5312C6.46128 17.2737 6.36757 16.9606 6.32775 16.6644C6.29158 16.3954 6.29162 16.0647 6.29166 15.704L6.29166 8.54607C6.29162 8.18539 6.29158 7.8547 6.32775 7.58569C6.36757 7.28945 6.46128 6.97635 6.7188 6.71883C6.97632 6.46131 7.28942 6.3676 7.58566 6.32778C7.85467 6.29161 8.18536 6.29165 8.54604 6.29169ZM8.58332 7.54169C8.17282 7.54169 7.92781 7.54301 7.75221 7.56662C7.69583 7.56443 7.57976 7.59848 7.56659 7.75224C7.54298 7.92784 7.54166 8.17285 7.54166 8.58335L7.54166 15.6667C7.54166 16.0772 7.54298 16.3222 7.56659 16.4978C7.57665 16.5994 7.69453 16.6639 7.75221 16.6834C7.92781 16.707 8.17282 16.7084 8.58332 16.7084H9.00001C9.41051 16.7084 9.65551 16.707 9.83111 16.6834C9.88845 16.6689 10.0059 16.6115 10.0167 16.4978C10.0403 16.3222 10.0417 16.0772 10.0417 15.6667L10.0417 12.7501C10.0417 12.0121 10.1561 11.2539 10.5138 10.6599C10.8995 10.0195 11.5378 9.62512 12.4065 9.62512C13.4366 9.62512 14.2083 10.5007 14.2083 11.5001V15.2501C14.2083 15.6606 14.2096 15.9056 14.2332 16.0812C14.2332 16.2129 14.3128 16.235 14.375 16.2523C14.3914 16.2568 14.4066 16.261 14.4188 16.2668C14.5944 16.2905 14.8395 16.2918 15.25 16.2918L15.6656 16.2918C16.076 16.2918 16.321 16.2905 16.4965 16.2669C16.5543 16.2454 16.6724 16.1783 16.6821 16.0813C16.7058 15.9057 16.7072 15.6608 16.7073 15.2504L16.7084 10.6667C16.7083 8.98782 15.0673 7.54189 13.414 7.54189C12.516 7.54189 11.7036 7.98091 11.1641 8.69005C11.0017 8.90353 10.7212 8.98958 10.467 8.9039C10.2129 8.81821 10.0417 8.5799 10.0417 8.31167C10.0417 8.03753 10.0411 7.87417 10.03 7.75368C10.0232 7.62764 9.89362 7.5676 9.82968 7.55334C9.70919 7.5423 9.54584 7.54169 9.2717 7.54169L8.58332 7.54169Z" fill="white"/>
</svg>
