<svg width="18" height="18" viewBox="0 0 18 18" fill="none" xmlns="http://www.w3.org/2000/svg">
<path d="M4.06082 1.28883C4.40436 1.25526 4.65564 0.949552 4.62207 0.606011C4.5885 0.262469 4.28279 0.0111865 3.93925 0.0447557C2.77189 0.158825 1.84843 0.428265 1.1383 1.13839C0.428175 1.84852 0.158735 2.77198 0.0446642 3.93934C0.0110949 4.28289 0.262379 4.58859 0.605919 4.62216C0.949461 4.65573 1.25517 4.40445 1.28874 4.06091C1.39217 3.00245 1.61557 2.4289 2.02219 2.02228C2.42881 1.61566 3.00235 1.39226 4.06082 1.28883Z" fill="#161616"/>
<path d="M14.0608 0.0447557C13.7173 0.0111865 13.4116 0.262469 13.378 0.606011C13.3444 0.949552 13.5957 1.25526 13.9393 1.28883C14.9977 1.39226 15.5713 1.61566 15.9779 2.02228C16.3845 2.4289 16.6079 3.00245 16.7113 4.06091C16.7449 4.40445 17.0506 4.65573 17.3942 4.62216C17.7377 4.58859 17.989 4.28289 17.9554 3.93934C17.8413 2.77198 17.5719 1.84852 16.8618 1.13839C16.1516 0.428265 15.2282 0.158825 14.0608 0.0447557Z" fill="#161616"/>
<path d="M7.33337 0.041793C6.98819 0.041793 6.70837 0.321615 6.70837 0.666793C6.70837 1.01197 6.98819 1.29179 7.33337 1.29179H10.6667C11.0119 1.29179 11.2917 1.01197 11.2917 0.666793C11.2917 0.321615 11.0119 0.0417931 10.6667 0.0417931L7.33337 0.041793Z" fill="#161616"/>
<path d="M1.2917 7.33346C1.2917 6.98828 1.01188 6.70846 0.666701 6.70846C0.321524 6.70846 0.0417014 6.98828 0.0417014 7.33346L0.041703 10.6668C0.041703 11.012 0.321524 11.2918 0.666701 11.2918C1.01188 11.2918 1.2917 11.012 1.2917 10.6668L1.2917 7.33346Z" fill="#161616"/>
<path d="M1.28874 13.9393C1.25517 13.5958 0.949461 13.3445 0.605919 13.3781C0.262377 13.4117 0.0110949 13.7174 0.0446642 14.0609C0.158735 15.2283 0.428175 16.1517 1.1383 16.8619C1.84843 17.572 2.77189 17.8414 3.93925 17.9555C4.28279 17.9891 4.5885 17.7378 4.62207 17.3942C4.65564 17.0507 4.40436 16.745 4.06082 16.7114C3.00236 16.608 2.42881 16.3846 2.02219 15.978C1.61557 15.5714 1.39217 14.9978 1.28874 13.9393Z" fill="#161616"/>
<path d="M11.3751 9.12508C11.7203 9.12508 12.0001 9.4049 12.0001 9.75008V10.7501H13.0001C13.3453 10.7501 13.6251 11.0299 13.6251 11.3751C13.6251 11.7203 13.3453 12.0001 13.0001 12.0001H12.0001V13.0001C12.0001 13.3453 11.7203 13.6251 11.3751 13.6251C11.0299 13.6251 10.7501 13.3453 10.7501 13.0001V12.0001H9.75009C9.40491 12.0001 9.12509 11.7203 9.12509 11.3751C9.12509 11.0299 9.40491 10.7501 9.75009 10.7501H10.7501V9.75008C10.7501 9.4049 11.0299 9.12508 11.3751 9.12508Z" fill="#161616"/>
<path fill-rule="evenodd" clip-rule="evenodd" d="M5.87509 11.3751C5.87509 8.33752 8.33753 5.87508 11.3751 5.87508C14.4127 5.87508 16.8751 8.33752 16.8751 11.3751C16.8751 12.507 16.5332 13.559 15.947 14.4335C15.8632 14.5585 15.7745 14.6798 15.6811 14.7972L17.7754 16.8915C18.0194 17.1355 18.0194 17.5313 17.7754 17.7754C17.5313 18.0194 17.1356 18.0194 16.8915 17.7754L14.7972 15.6811C13.858 16.4285 12.6687 16.8751 11.3751 16.8751C8.33753 16.8751 5.87509 14.4126 5.87509 11.3751ZM11.3751 7.12508C9.02788 7.12508 7.12509 9.02787 7.12509 11.3751C7.12509 13.7223 9.02788 15.6251 11.3751 15.6251C13.7223 15.6251 15.6251 13.7223 15.6251 11.3751C15.6251 9.02787 13.7223 7.12508 11.3751 7.12508Z" fill="#161616"/>
</svg>
