<svg width="18" height="14" viewBox="0 0 18 14" fill="none" xmlns="http://www.w3.org/2000/svg">
<path fill-rule="evenodd" clip-rule="evenodd" d="M9.00001 10.1251C7.27412 10.1251 5.87501 8.72597 5.87501 7.00008C5.87501 5.27419 7.27412 3.87508 9.00001 3.87508C10.7259 3.87508 12.125 5.27419 12.125 7.00008C12.125 8.72597 10.7259 10.1251 9.00001 10.1251ZM7.12501 7.00008C7.12501 8.03562 7.96447 8.87508 9.00001 8.87508C10.0355 8.87508 10.875 8.03562 10.875 7.00008C10.875 5.96455 10.0355 5.12508 9.00001 5.12508C7.96447 5.12508 7.12501 5.96455 7.12501 7.00008Z" fill="#161616"/>
<path fill-rule="evenodd" clip-rule="evenodd" d="M9.00001 0.541748C6.85787 0.541748 5.02163 1.48459 3.60026 2.59424C2.17761 3.70488 1.12606 5.01653 0.537847 5.84135L0.493498 5.90319C0.282535 6.19659 0.0416718 6.53158 0.0416718 7.00008C0.0416718 7.46859 0.282535 7.80357 0.493499 8.09697L0.537848 8.15882C1.12606 8.98363 2.17761 10.2953 3.60026 11.4059C5.02163 12.5156 6.85787 13.4584 9.00001 13.4584C11.1421 13.4584 12.9784 12.5156 14.3998 11.4059C15.8224 10.2953 16.874 8.98363 17.4622 8.15882L17.5065 8.09697C17.7175 7.80357 17.9583 7.46859 17.9583 7.00008C17.9583 6.53158 17.7175 6.19659 17.5065 5.90319L17.4622 5.84135C16.874 5.01653 15.8224 3.70488 14.3997 2.59423C12.9784 1.48459 11.1421 0.541748 9.00001 0.541748ZM1.55556 6.56712C2.10573 5.79565 3.07699 4.58856 4.36947 3.57953C5.66323 2.56951 7.23446 1.79175 9.00001 1.79175C10.7656 1.79175 12.3368 2.56951 13.6305 3.57953C14.923 4.58856 15.8943 5.79565 16.4444 6.56712C16.5805 6.75797 16.6453 6.85117 16.6839 6.92535C16.7085 6.97251 16.7084 6.98543 16.7083 6.99809L16.7083 7.00008L16.7083 7.00207C16.7084 7.01473 16.7085 7.02766 16.6839 7.07481C16.6453 7.149 16.5805 7.24219 16.4444 7.43304C15.8943 8.20451 14.923 9.4116 13.6305 10.4206C12.3368 11.4307 10.7656 12.2084 9.00001 12.2084C7.23446 12.2084 5.66323 11.4307 4.36947 10.4206C3.07699 9.4116 2.10573 8.20451 1.55556 7.43304C1.41946 7.24219 1.35469 7.149 1.31607 7.07481C1.29153 7.02766 1.2916 7.01473 1.29166 7.00207L1.29167 7.00008L1.29166 6.99809C1.2916 6.98543 1.29153 6.97251 1.31607 6.92535C1.35469 6.85117 1.41946 6.75797 1.55556 6.56712Z" fill="#161616"/>
</svg>
