<svg width="18" height="18" viewBox="0 0 18 18" fill="none" xmlns="http://www.w3.org/2000/svg">
<path fill-rule="evenodd" clip-rule="evenodd" d="M4.62501 9.00004C4.62501 6.58379 6.58376 4.62504 9.00001 4.62504C11.4163 4.62504 13.375 6.58379 13.375 9.00004C13.375 11.4163 11.4163 13.375 9.00001 13.375C6.58376 13.375 4.62501 11.4163 4.62501 9.00004ZM9.00001 5.87504C7.27412 5.87504 5.87501 7.27415 5.87501 9.00004C5.87501 10.7259 7.27412 12.125 9.00001 12.125C10.7259 12.125 12.125 10.7259 12.125 9.00004C12.125 7.27415 10.7259 5.87504 9.00001 5.87504Z" fill="white"/>
<path d="M13.5899 5.25004C14.0501 5.25004 14.4232 4.87694 14.4232 4.41671C14.4232 3.95647 14.0501 3.58337 13.5899 3.58337H13.5824C13.1221 3.58337 12.749 3.95647 12.749 4.41671C12.749 4.87694 13.1221 5.25004 13.5824 5.25004H13.5899Z" fill="white"/>
<path fill-rule="evenodd" clip-rule="evenodd" d="M9.04766 0.458374C10.8732 0.458363 12.3071 0.458355 13.4267 0.608869C14.5739 0.763108 15.4841 1.08564 16.1993 1.8008C16.9144 2.51597 17.2369 3.42618 17.3912 4.57339C17.5417 5.6929 17.5417 7.12679 17.5417 8.95237V9.04768C17.5417 10.8733 17.5417 12.3072 17.3912 13.4267C17.2369 14.5739 16.9144 15.4841 16.1993 16.1993C15.4841 16.9144 14.5739 17.237 13.4267 17.3912C12.3071 17.5417 10.8733 17.5417 9.04768 17.5417H8.95237C7.12679 17.5417 5.69287 17.5417 4.57336 17.3912C3.42615 17.237 2.51594 16.9144 1.80077 16.1993C1.08561 15.4841 0.763077 14.5739 0.608838 13.4267C0.458324 12.3072 0.458333 10.8733 0.458344 9.04769L0.458344 8.95239C0.458333 7.12681 0.458324 5.69291 0.608838 4.57339C0.763077 3.42618 1.08561 2.51597 1.80077 1.8008C2.51594 1.08564 3.42615 0.763108 4.57336 0.608869C5.69287 0.458355 7.12676 0.458363 8.95234 0.458374L9.04766 0.458374ZM4.73992 1.84772C3.73132 1.98333 3.12886 2.24048 2.68465 2.68469C2.24045 3.12889 1.9833 3.73135 1.84769 4.73995C1.70967 5.76654 1.70834 7.11639 1.70834 9.00004C1.70834 10.8837 1.70967 12.2335 1.84769 13.2601C1.9833 14.2687 2.24045 14.8712 2.68465 15.3154C3.12886 15.7596 3.73132 16.0168 4.73992 16.1524C5.76651 16.2904 7.11637 16.2917 9.00001 16.2917C10.8837 16.2917 12.2335 16.2904 13.2601 16.1524C14.2687 16.0168 14.8712 15.7596 15.3154 15.3154C15.7596 14.8712 16.0167 14.2687 16.1523 13.2601C16.2904 12.2335 16.2917 10.8837 16.2917 9.00004C16.2917 7.11639 16.2904 5.76654 16.1523 4.73995C16.0167 3.73135 15.7596 3.12889 15.3154 2.68469C14.8712 2.24048 14.2687 1.98333 13.2601 1.84772C12.2335 1.7097 10.8837 1.70837 9.00001 1.70837C7.11637 1.70837 5.76651 1.7097 4.73992 1.84772Z" fill="white"/>
</svg>
