<svg width="86" height="68" viewBox="0 0 86 68" fill="none" xmlns="http://www.w3.org/2000/svg">
<rect width="85" height="68" transform="translate(0.0999756)" fill="white"/>
<path d="M58.5772 25.4111C58.2041 25.1856 57.5241 24.8055 56.5854 24.4898C55.2313 24.0259 53.3417 23.678 51.1031 24.0581C50.3509 24.187 49.5565 24.3996 48.7321 24.7153C48.6539 24.7475 48.5757 24.7733 48.4974 24.8055C48.0762 24.973 47.661 25.1792 47.2397 25.4047C46.8786 25.598 46.5236 25.8106 46.1685 26.0425C45.3561 26.5644 44.5558 27.1572 43.7795 27.8014C42.8949 22.0737 43.3281 16.7583 43.5327 14.1489C43.5327 14.136 43.5508 14.1296 43.5628 14.136C45.4584 15.4117 44.9289 18.9747 44.5257 19.9991C44.5197 20.0184 44.5437 20.0313 44.5618 20.0184C46.9208 17.0353 45.7714 13.7366 45.2839 12.9054C45.2719 12.8861 45.2959 12.8668 45.314 12.8797C45.657 13.176 45.9338 13.4917 46.1685 13.8139C46.8967 14.8125 47.1675 15.8885 47.2397 16.8421C47.2758 17.3446 47.2638 17.8085 47.2397 18.208C47.2337 18.3175 47.2277 18.4141 47.2156 18.5108C47.2156 18.5237 47.2277 18.5301 47.2397 18.5237C47.2457 18.5237 47.2517 18.5237 47.2517 18.5172C47.8896 17.1771 48.1965 15.154 47.2397 13.1889C46.9809 12.6542 46.6319 12.1258 46.1685 11.6169C46.0361 11.4687 45.8917 11.3269 45.7413 11.1787C45.7292 11.1659 45.7413 11.1401 45.7593 11.1465C45.9037 11.1852 46.0361 11.2303 46.1685 11.2754C46.5717 11.4236 46.9268 11.6297 47.2397 11.881C47.9558 12.448 48.4433 13.2211 48.7321 14.0329C48.9728 14.703 49.0812 15.3924 49.0812 16.0045C49.0812 16.0302 49.1112 16.0303 49.1173 16.0109C49.5626 14.2649 49.2918 12.9441 48.7321 11.9841C48.3349 11.2947 47.7873 10.7922 47.2397 10.4378C46.8666 10.1994 46.4935 10.0319 46.1685 9.92882C45.976 9.86439 45.8075 9.82573 45.657 9.8064C45.6329 9.8064 45.639 9.76775 45.663 9.76775C45.8375 9.74842 46.0061 9.74197 46.1685 9.73553C46.5657 9.72909 46.9208 9.76775 47.2397 9.82573C47.8716 9.95459 48.365 10.1865 48.7321 10.4571C49.3339 10.8888 49.6348 11.3978 49.7371 11.604C49.7431 11.6233 49.7732 11.6104 49.7732 11.5911C49.6889 10.6698 49.2918 9.94815 48.7381 9.43271C48.3109 9.03325 47.7873 8.75621 47.2457 8.58869C46.8907 8.48561 46.5296 8.42763 46.1745 8.42118C45.6931 8.41474 45.2297 8.49849 44.8386 8.67889C44.8205 8.68534 44.8085 8.66601 44.8145 8.64668C45.1636 8.11192 45.657 7.78978 46.1745 7.61582C46.5356 7.49985 46.9027 7.45474 47.2457 7.48051C47.5767 7.49984 47.8776 7.57715 48.1243 7.69957C48.1424 7.70601 48.1544 7.68669 48.1424 7.66736C47.8716 7.33878 47.5647 7.08105 47.2457 6.88777C46.9027 6.68159 46.5416 6.55918 46.1745 6.51408C45.2177 6.39811 44.2428 6.83623 43.5929 7.88642C43.5869 7.89931 43.5688 7.89931 43.5628 7.88642C43.4364 7.64803 43.3161 7.38387 43.2078 7.10682C42.949 6.46253 42.7384 5.74093 42.624 5.01933C42.618 4.99356 42.594 4.99356 42.594 5.01933C42.4796 5.74093 42.263 6.46898 42.0042 7.11327C41.8899 7.39032 41.7755 7.64804 41.6492 7.87998C41.6431 7.89287 41.6251 7.89287 41.6191 7.87998C40.4877 6.04375 38.3634 6.08241 37.0696 7.66736C37.0576 7.68025 37.0696 7.70601 37.0877 7.69957C37.9482 7.26145 39.579 7.39031 40.3975 8.64668C40.4095 8.66601 40.3914 8.68534 40.3734 8.67889C39.1157 8.11192 37.1659 8.47916 36.1248 9.8064C35.7517 10.2767 35.499 10.8759 35.4328 11.5911C35.4328 11.6104 35.4568 11.6233 35.4689 11.604C35.5471 11.4429 35.7517 11.095 36.1248 10.7406C36.7326 10.1672 37.7918 9.58735 39.5429 9.76131C39.567 9.76775 39.567 9.79996 39.5489 9.79996C38.6523 9.91594 36.8048 10.7728 36.1248 12.7315C35.8239 13.5948 35.7457 14.6772 36.0827 16.0045C36.0887 16.0238 36.1188 16.0238 36.1188 15.998C36.1188 15.9658 36.1188 15.9401 36.1248 15.9078C36.1429 14.1296 37.0937 11.7457 39.4466 11.1401C39.4647 11.1336 39.4767 11.1594 39.4647 11.1723C36.8349 13.6464 37.0937 16.7003 37.9542 18.5043C37.9663 18.5237 37.9903 18.5172 37.9903 18.4979C37.876 17.132 37.7857 14.703 39.892 12.8668C39.91 12.8539 39.9341 12.8732 39.9221 12.8926C39.4346 13.7301 38.2852 17.0225 40.6442 20.0055C40.6562 20.0249 40.6863 20.012 40.6803 19.9862C40.2831 18.9682 39.7535 15.3988 41.6431 14.1231C41.6552 14.1167 41.6732 14.1232 41.6732 14.136C41.8778 16.7454 42.3111 22.0608 41.4265 27.7886C39.904 26.5386 38.2972 25.4433 36.7085 24.799C36.51 24.7217 36.3174 24.6509 36.1308 24.58C34.488 24.0001 32.9835 23.8391 31.6716 23.9035C29.5654 24.0001 27.9526 24.6766 27.068 25.147C26.8875 25.2436 26.737 25.3338 26.6227 25.4047C26.5746 25.4369 26.6107 25.5078 26.6588 25.4884C26.7972 25.4433 26.9296 25.3982 27.068 25.3596C28.6868 24.8699 30.2214 24.7411 31.6716 24.8764C33.2543 25.0245 34.7407 25.4884 36.1308 26.1585C38.0806 27.0992 39.8438 28.4393 41.4385 29.8567C39.1879 31.9571 37.2863 33.9995 36.1308 34.7147C36.0707 34.7469 36.0165 34.7856 35.9623 34.8178C35.6855 34.4119 35.2041 34.1799 34.6805 34.3023C34.2232 34.4119 33.8501 34.8049 33.7478 35.2881C33.6575 35.7198 33.7598 36.1901 33.9885 36.4349C34.6023 37.0921 35.3124 37.1372 36.1308 36.77C37.6894 36.0677 39.6272 33.8642 42.0042 31.5319C42.2028 31.3386 42.4014 31.1389 42.606 30.9456C42.8106 31.1389 43.0092 31.3322 43.2078 31.5254C44.285 32.5821 45.2719 33.6129 46.1745 34.4892C46.5476 34.85 46.9027 35.185 47.2457 35.4814C47.7753 35.9453 48.2748 36.3254 48.7381 36.5896C49.6468 37.105 50.4352 37.1694 51.1091 36.5316C51.1453 36.4994 51.1814 36.4672 51.2175 36.4285C51.3739 36.261 51.5545 35.7133 51.4582 35.2817C51.404 35.0304 51.2776 34.8049 51.1031 34.6309C50.9467 34.4698 50.7421 34.3474 50.5254 34.2959C50.0019 34.1735 49.5204 34.4054 49.2436 34.8113C49.0872 34.7276 48.9187 34.6116 48.7321 34.4763C48.3048 34.1606 47.8054 33.716 47.2397 33.1877C46.9027 32.872 46.5477 32.5241 46.1685 32.1568C45.4344 31.4417 44.628 30.6556 43.7734 29.8503C44.5317 29.1738 45.3321 28.5166 46.1685 27.911C46.5176 27.6597 46.8726 27.4149 47.2397 27.1829C47.7271 26.8737 48.2206 26.5902 48.7321 26.326C49.4964 25.933 50.2847 25.6044 51.1031 25.3531C52.8001 24.8313 54.6235 24.6573 56.5854 24.9923C57.2232 25.1019 57.8732 25.2629 58.5411 25.482C58.5893 25.5142 58.6254 25.4433 58.5772 25.4111Z" fill="#9DA4AE"/>
<path d="M6.90594 58H5.54994V49.624H9.14994C10.6859 49.624 11.5859 50.62 11.5859 52.144C11.5859 53.668 10.6859 54.664 9.14994 54.664H6.90594V58ZM6.90594 50.812V53.476H9.06594C9.74994 53.476 10.1579 53.104 10.1579 52.432V51.856C10.1579 51.184 9.74994 50.812 9.06594 50.812H6.90594ZM15.1494 58H14.3094C13.4214 58 12.9774 57.508 12.9774 56.704V49.12H14.2854V56.932H15.1494V58ZM21.7033 58H20.9713C20.2873 58 19.9273 57.568 19.8433 56.956H19.7833C19.5433 57.736 18.8713 58.144 17.9593 58.144C16.6753 58.144 15.9433 57.412 15.9433 56.284C15.9433 55.048 16.8673 54.412 18.6073 54.412H19.7353V53.884C19.7353 53.128 19.3273 52.684 18.4513 52.684C17.7193 52.684 17.2753 53.044 16.9633 53.536L16.1833 52.828C16.5913 52.132 17.3233 51.616 18.5353 51.616C20.1433 51.616 21.0433 52.408 21.0433 53.8V56.932H21.7033V58ZM18.3313 57.148C19.1353 57.148 19.7353 56.764 19.7353 56.152V55.252H18.6313C17.7193 55.252 17.2753 55.552 17.2753 56.092V56.308C17.2753 56.86 17.6833 57.148 18.3313 57.148ZM25.818 58H24.678C23.778 58 23.298 57.496 23.298 56.644V52.828H22.326V51.76H22.854C23.286 51.76 23.43 51.58 23.43 51.148V50.056H24.606V51.76H25.914V52.828H24.606V56.932H25.818V58ZM27.5865 58V52.828H26.6385V51.76H27.5865V50.728C27.5865 49.72 28.1265 49.12 29.1705 49.12H30.2025V50.188H28.8945V51.76H30.2025V52.828H28.8945V58H27.5865ZM33.7418 58.144C32.0018 58.144 30.8738 56.872 30.8738 54.88C30.8738 52.888 32.0018 51.616 33.7418 51.616C35.4818 51.616 36.6098 52.888 36.6098 54.88C36.6098 56.872 35.4818 58.144 33.7418 58.144ZM33.7418 57.064C34.6298 57.064 35.2298 56.512 35.2298 55.408V54.352C35.2298 53.248 34.6298 52.696 33.7418 52.696C32.8538 52.696 32.2538 53.248 32.2538 54.352V55.408C32.2538 56.512 32.8538 57.064 33.7418 57.064ZM39.3752 58H38.0672V51.76H39.3752V52.96H39.4352C39.6152 52.324 40.1552 51.76 41.1512 51.76H41.4992V53.02H40.9832C39.9512 53.02 39.3752 53.368 39.3752 54.016V58ZM43.969 58H42.661V51.76H43.969V52.792H44.029C44.281 52.144 44.749 51.616 45.697 51.616C46.537 51.616 47.245 52.024 47.545 52.888H47.581C47.809 52.192 48.457 51.616 49.465 51.616C50.701 51.616 51.433 52.504 51.433 54.04V58H50.125V54.196C50.125 53.236 49.765 52.744 48.973 52.744C48.313 52.744 47.701 53.092 47.701 53.812V58H46.393V54.196C46.393 53.224 46.021 52.744 45.253 52.744C44.605 52.744 43.969 53.092 43.969 53.812V58ZM60.9389 58H56.1749V49.624H57.5309V56.8H60.9389V58ZM64.5621 58.144C62.8221 58.144 61.6941 56.872 61.6941 54.88C61.6941 52.888 62.8221 51.616 64.5621 51.616C66.3021 51.616 67.4301 52.888 67.4301 54.88C67.4301 56.872 66.3021 58.144 64.5621 58.144ZM64.5621 57.064C65.4501 57.064 66.0501 56.512 66.0501 55.408V54.352C66.0501 53.248 65.4501 52.696 64.5621 52.696C63.6741 52.696 63.0741 53.248 63.0741 54.352V55.408C63.0741 56.512 63.6741 57.064 64.5621 57.064ZM74.3595 58.588C74.3595 59.884 73.4355 60.544 71.1915 60.544C69.1515 60.544 68.3595 59.992 68.3595 59.044C68.3595 58.36 68.7675 57.988 69.4275 57.844V57.712C68.9715 57.568 68.7195 57.22 68.7195 56.752C68.7195 56.104 69.2235 55.792 69.8235 55.648V55.6C69.0915 55.252 68.6835 54.592 68.6835 53.752C68.6835 52.48 69.5835 51.616 71.1675 51.616C71.5875 51.616 71.9715 51.676 72.2955 51.808V51.64C72.2955 51.088 72.5595 50.752 73.1115 50.752H74.0715V51.808H72.7995V52.06C73.3635 52.432 73.6755 53.032 73.6755 53.752C73.6755 55.012 72.7635 55.864 71.1795 55.864C70.8795 55.864 70.5915 55.828 70.3635 55.768C70.0515 55.876 69.7635 56.08 69.7635 56.392C69.7635 56.728 70.0875 56.86 70.6395 56.86H72.1755C73.7115 56.86 74.3595 57.508 74.3595 58.588ZM73.1355 58.732C73.1355 58.3 72.8475 58.024 71.9955 58.024H69.8835C69.5955 58.192 69.4515 58.444 69.4515 58.744C69.4515 59.248 69.8235 59.596 70.7955 59.596H71.6115C72.6315 59.596 73.1355 59.308 73.1355 58.732ZM71.1795 54.916C71.9475 54.916 72.3915 54.568 72.3915 53.86V53.62C72.3915 52.912 71.9475 52.564 71.1795 52.564C70.4115 52.564 69.9675 52.912 69.9675 53.62V53.86C69.9675 54.568 70.4115 54.916 71.1795 54.916ZM77.7105 58.144C75.9705 58.144 74.8425 56.872 74.8425 54.88C74.8425 52.888 75.9705 51.616 77.7105 51.616C79.4505 51.616 80.5785 52.888 80.5785 54.88C80.5785 56.872 79.4505 58.144 77.7105 58.144ZM77.7105 57.064C78.5985 57.064 79.1985 56.512 79.1985 55.408V54.352C79.1985 53.248 78.5985 52.696 77.7105 52.696C76.8225 52.696 76.2225 53.248 76.2225 54.352V55.408C76.2225 56.512 76.8225 57.064 77.7105 57.064Z" fill="#6C737F"/>
</svg>
