<svg xmlns="http://www.w3.org/2000/svg" width="85" height="68" viewBox="0 0 85 68"><rect width="100%" height="100%" fill="#DDDDDD"/><path fill="#999999" d="M20.05 38.365q.49 0 .86-.14t.62-.38q.25-.25.38-.6.13-.34.13-.74 0-.95-.53-1.44t-1.46-.49-1.45.49q-.53.49-.53 1.44 0 .4.13.74.12.35.38.6.25.24.62.38.36.14.85.14m0-8.79q-.44 0-.76.14-.32.13-.53.36t-.31.53q-.1.29-.1.62 0 .34.08.67.09.32.29.57.2.26.52.41.33.15.81.15t.81-.15.53-.41q.2-.25.28-.57.09-.33.09-.67 0-.33-.11-.62-.1-.3-.31-.53t-.53-.36q-.32-.14-.76-.14m1.95 4.18q1.06.34 1.56 1.05.51.71.51 1.73 0 .77-.29 1.39-.3.63-.82 1.07-.53.44-1.27.68t-1.64.24q-.89 0-1.63-.24t-1.27-.68-.82-1.07q-.29-.62-.29-1.39 0-1.02.5-1.73t1.56-1.05q-.84-.35-1.26-1t-.42-1.56q0-.66.27-1.23.27-.56.75-.98t1.14-.66q.67-.24 1.47-.24t1.47.24 1.15.66.75.98q.26.57.26 1.23 0 .91-.42 1.56t-1.26 1m6.35-3.75-.41 2.41q.38-.08.74-.11.35-.04.68-.04.91 0 1.6.27.7.27 1.17.75t.71 1.13q.24.64.24 1.39 0 .92-.32 1.68t-.9 1.3-1.36.83q-.79.3-1.72.3-.54 0-1.03-.11-.49-.12-.92-.3-.43-.19-.79-.44-.36-.24-.65-.51l.61-.84q.19-.27.5-.27.2 0 .41.12.21.13.47.28.27.16.64.28.36.13.87.13.55 0 .96-.17.42-.18.69-.5.28-.31.42-.75.14-.43.14-.95 0-.94-.55-1.47t-1.62-.53q-.82 0-1.69.3l-1.23-.35.96-5.62h5.71v.84q0 .43-.26.69t-.9.26zm17.93 7.13-1.05 1.03-2.71-2.71-2.74 2.73-1.05-1.03 2.74-2.75-2.61-2.6 1.04-1.04 2.61 2.6 2.59-2.59 1.06 1.04-2.6 2.6zm12.36-8.92-3.44 4.2-.4.5q.34-.17.73-.26t.83-.09q.66 0 1.28.21.62.22 1.09.65.47.44.76 1.09t.29 1.51q0 .81-.3 1.52-.29.7-.83 1.23-.53.53-1.29.83-.76.31-1.67.31-.93 0-1.66-.3-.74-.29-1.26-.83-.52-.53-.79-1.28-.28-.74-.28-1.66 0-.81.33-1.67t1.03-1.79l2.76-3.7q.14-.2.42-.33.28-.14.64-.14zm-2.99 10.08q.47 0 .87-.16t.68-.45q.28-.28.44-.67t.16-.85q0-.49-.15-.89-.15-.39-.43-.67t-.67-.42-.87-.14q-.47 0-.85.16-.39.16-.66.44t-.42.67-.15.84q0 .48.13.87.13.4.39.68t.64.44q.39.15.89.15m9.3.07q.49 0 .85-.14.37-.14.62-.38.26-.25.38-.6.13-.34.13-.74 0-.95-.53-1.44-.52-.49-1.45-.49t-1.46.49-.53 1.44q0 .4.13.74.13.35.38.6.25.24.62.38t.86.14m0-8.79q-.44 0-.76.14-.32.13-.53.36-.22.23-.32.53-.1.29-.1.62 0 .34.09.67.08.32.28.57.2.26.53.41t.81.15.81-.15q.32-.15.52-.41.2-.25.29-.57.08-.33.08-.67 0-.33-.1-.62-.11-.3-.31-.53-.21-.23-.53-.36-.32-.14-.76-.14m1.95 4.18q1.06.34 1.56 1.05t.5 1.73q0 .77-.29 1.39-.29.63-.82 1.07t-1.27.68-1.63.24q-.9 0-1.64-.24t-1.27-.68q-.52-.44-.82-1.07-.29-.62-.29-1.39 0-1.02.51-1.73.5-.71 1.56-1.05-.84-.35-1.26-1t-.42-1.56q0-.66.26-1.23.27-.56.75-.98t1.15-.66 1.47-.24 1.47.24q.66.24 1.14.66t.75.98q.27.57.27 1.23 0 .91-.42 1.56t-1.26 1"/></svg>