<svg xmlns="http://www.w3.org/2000/svg" width="125" height="42" viewBox="0 0 125 42"><rect width="100%" height="100%" fill="#DDDDDD"/><path fill="#999999" d="M32.005 26.11h2.47v1.76h-7.6v-1.76h2.78V18.1q0-.47.03-.97l-1.98 1.65q-.17.13-.34.16-.16.04-.31.01t-.26-.1-.17-.16l-.74-1.01 4.19-3.57h1.93zm9.45-.43h3.52q.38 0 .61.22.22.21.22.56v1.41h-9.42v-.78q0-.24.09-.5.1-.26.32-.47l4.17-4.18q.53-.53.94-1.01.41-.49.69-.96.27-.48.42-.97t.15-1.03q0-.49-.14-.87-.15-.37-.41-.63t-.63-.38q-.36-.13-.82-.13-.42 0-.77.12-.36.11-.63.33-.28.21-.47.5-.19.28-.28.62-.16.44-.42.58-.26.15-.74.07l-1.24-.22q.15-.99.55-1.73.41-.75 1.02-1.25.62-.5 1.41-.75t1.71-.25q.95 0 1.73.28.79.28 1.35.79.56.52.88 1.24.31.72.31 1.61 0 .76-.22 1.4-.23.65-.6 1.24-.38.58-.88 1.14-.5.55-1.05 1.12l-3.1 3.16q.45-.13.89-.2.44-.08.84-.08m9.56-9.42-.48 2.86q.46-.09.87-.14.42-.04.81-.04 1.08 0 1.91.32.83.33 1.39.9t.84 1.33q.29.77.29 1.65 0 1.09-.39 1.99-.38.91-1.07 1.55-.68.64-1.61.99-.94.35-2.04.35-.65 0-1.23-.13t-1.09-.36q-.5-.22-.94-.51-.43-.29-.77-.61l.72-1q.23-.32.6-.32.24 0 .48.15.25.15.57.33t.75.33q.43.16 1.04.16.65 0 1.14-.21t.82-.59q.33-.37.5-.89.16-.52.16-1.13 0-1.12-.65-1.75t-1.92-.63q-.98 0-2.01.36l-1.46-.42 1.14-6.67h6.78v1q0 .5-.31.82-.31.31-1.06.31zm21.29 8.47-1.24 1.22-3.22-3.22-3.25 3.24-1.24-1.23 3.24-3.25-3.09-3.1 1.23-1.24 3.1 3.1 3.08-3.08 1.25 1.24-3.09 3.09zm8.23-2.04h4.18V18.2q0-.64.09-1.41zm6.22 0h1.73v1.36q0 .19-.12.33t-.35.14h-1.26v3.35h-2.04v-3.35h-5.79q-.24 0-.42-.15t-.23-.37l-.25-1.18 6.51-8.7h2.22zm8.01 2.99h3.53q.38 0 .6.22.22.21.22.56v1.41h-9.42v-.78q0-.24.1-.5t.32-.47l4.17-4.18q.52-.53.93-1.01.42-.49.69-.96.28-.48.42-.97.15-.49.15-1.03 0-.49-.14-.87-.14-.37-.4-.63-.27-.26-.63-.38-.37-.13-.82-.13-.42 0-.78.12-.35.11-.63.33-.27.21-.46.5-.19.28-.29.62-.16.44-.42.58-.25.15-.74.07l-1.23-.22q.14-.99.55-1.73.41-.75 1.02-1.25t1.4-.75q.8-.25 1.71-.25.95 0 1.74.28t1.35.79q.56.52.87 1.24.32.72.32 1.61 0 .76-.23 1.4-.22.65-.6 1.24-.37.58-.88 1.14-.5.55-1.05 1.12l-3.1 3.16q.45-.13.89-.2.44-.08.84-.08"/></svg>