<svg width="23" height="22" viewBox="0 0 23 22" fill="none" xmlns="http://www.w3.org/2000/svg">
<path d="M11.6656 12.7461C11.2516 12.7461 10.9156 12.4101 10.9156 11.9961V11.6161C10.9156 10.7501 11.4316 10.0931 11.8876 9.51309L11.8987 9.49897C12.0466 9.31021 12.1862 9.13198 12.2916 8.96514C12.3706 8.83914 12.4156 8.68513 12.4156 8.53613C12.4156 8.10013 12.0796 7.74609 11.6656 7.74609C11.2516 7.74609 10.9156 8.10013 10.9156 8.53613C10.9156 8.97213 10.5796 9.28613 10.1656 9.28613C9.75165 9.28613 9.41565 8.95013 9.41565 8.53613C9.41565 7.27313 10.4246 6.24609 11.6656 6.24609C12.9066 6.24609 13.9156 7.27313 13.9156 8.53613C13.9156 8.96913 13.7936 9.39306 13.5616 9.76406C13.4096 10.0031 13.2356 10.2251 13.0676 10.4391L13.0643 10.4432C12.7453 10.8499 12.4156 11.2703 12.4156 11.6161V11.9961C12.4156 12.4101 12.0796 12.7461 11.6656 12.7461Z" fill="#1B8354"/>
<path d="M10.9205 13.9961C10.9205 14.4101 11.2615 14.7461 11.6755 14.7461C12.0895 14.7461 12.4255 14.4101 12.4255 13.9961C12.4255 13.5821 12.0895 13.2461 11.6755 13.2461H11.6656C11.2516 13.2461 10.9205 13.5821 10.9205 13.9961Z" fill="#1B8354"/>
<path fill-rule="evenodd" clip-rule="evenodd" d="M3.81061 21.248C3.75661 21.248 3.70262 21.248 3.64762 21.246L3.56959 21.244C2.88659 21.223 2.29561 21.2039 1.93961 20.6339L1.92154 20.603C1.58458 20.001 1.87855 19.447 2.28549 18.6802L2.30358 18.646C2.63658 18.021 2.96357 17.1559 2.65358 16.5549C1.62258 15.0189 1.05256 13.499 0.958556 12.036C0.906556 11.167 0.906556 10.289 0.958556 9.423C1.25156 4.822 4.90054 1.12398 9.44654 0.819977C10.8945 0.727977 12.4286 0.727977 13.8836 0.819977C18.4326 1.12498 22.0826 4.82195 22.3746 9.42095C22.4266 10.29 22.4266 11.1679 22.3746 12.0339C22.0816 16.6349 18.4326 20.332 13.8866 20.637C12.4286 20.739 10.8915 20.739 9.44254 20.637C8.86354 20.601 8.24961 20.4609 7.71861 20.2419L7.59557 20.191L7.53353 20.1655C7.41521 20.1169 7.29915 20.0692 7.21061 20.036C7.14323 20.0817 7.05781 20.142 6.97055 20.2036L6.91754 20.241L6.85563 20.2849C5.98363 20.9339 4.98456 21.25 3.80856 21.25L3.81061 21.248ZM3.42457 19.7379C3.4664 19.7399 3.50954 19.7411 3.55225 19.7422L3.61656 19.744L3.68961 19.746C4.60861 19.767 5.31554 19.561 5.96754 19.075C5.97004 19.0735 5.97231 19.0717 5.97457 19.07C5.97684 19.0682 5.9791 19.0665 5.9816 19.065L6.04957 19.017L6.05177 19.0154C6.48631 18.7064 6.7051 18.5509 7.0026 18.5049C7.3286 18.4559 7.60959 18.5709 8.16959 18.8019L8.29156 18.8519C8.66856 19.0079 9.12356 19.111 9.54156 19.137C10.9286 19.234 12.3936 19.235 13.7836 19.137H13.7856C17.5836 18.883 20.6316 15.7869 20.8776 11.9379C20.9256 11.1459 20.9256 10.305 20.8776 9.51099C20.6326 5.66399 17.5836 2.56892 13.7866 2.31392C12.3956 2.22692 10.9276 2.22692 9.54361 2.31392C5.74861 2.56792 2.69955 5.66295 2.45455 9.51295C2.40655 10.3049 2.40655 11.146 2.45455 11.94C2.53155 13.141 3.02454 14.422 3.91754 15.745C3.92954 15.763 3.9416 15.7819 3.9526 15.8019C4.4816 16.7579 4.37258 17.951 3.62858 19.348L3.61061 19.3809C3.54761 19.4989 3.48157 19.6249 3.42457 19.7379Z" fill="#1B8354"/>
</svg>
