<svg width="19" height="12" viewBox="0 0 19 12" fill="none" xmlns="http://www.w3.org/2000/svg">
<path d="M18.4162 5.99961C18.4162 5.62605 18.2506 5.27949 18.0937 5.01926C17.9244 4.73844 17.6968 4.44852 17.447 4.16584C16.946 3.59877 16.2923 2.98979 15.658 2.43892C15.0199 1.88481 14.384 1.3746 13.909 1.00383C13.6711 0.818131 13.4726 0.666696 13.3332 0.561384C13.2635 0.508715 13.2085 0.467543 13.1706 0.439348L13.1271 0.406963L13.1155 0.39841L13.1115 0.39545C12.778 0.149788 12.3081 0.220678 12.0624 0.55418C11.8167 0.887667 11.8879 1.35715 12.2214 1.60282L12.2341 1.61223L12.2742 1.642C12.3096 1.6684 12.362 1.70764 12.429 1.75825C12.563 1.85951 12.7552 2.0061 12.986 2.18628C13.4485 2.54725 14.0626 3.04014 14.6745 3.57149C15.2901 4.10608 15.8864 4.66491 16.3229 5.15898C16.3505 5.19023 16.3772 5.22094 16.4031 5.2511L1.6662 5.2511C1.25199 5.2511 0.916199 5.58689 0.916199 6.0011C0.916199 6.41531 1.25199 6.7511 1.6662 6.7511L16.4005 6.7511C16.3755 6.7803 16.3496 6.81003 16.3229 6.84026C15.8864 7.33433 15.2901 7.89316 14.6745 8.42774C14.0626 8.9591 13.4485 9.45199 12.986 9.81296C12.7552 9.99314 12.563 10.1397 12.429 10.241C12.362 10.2916 12.3096 10.3308 12.2742 10.3572L12.2341 10.387L12.2214 10.3964C11.8879 10.6421 11.8167 11.1116 12.0624 11.4451C12.3081 11.7786 12.778 11.8495 13.1115 11.6038L13.1155 11.6008L13.1271 11.5923L13.1706 11.5599C13.2085 11.5317 13.2635 11.4905 13.3332 11.4379C13.4726 11.3325 13.6711 11.1811 13.909 10.9954C14.384 10.6246 15.0199 10.1144 15.658 9.56032C16.2923 9.00945 16.946 8.40047 17.447 7.8334C17.6968 7.55072 17.9244 7.2608 18.0937 6.97998C18.2496 6.72131 18.4142 6.37733 18.4162 6.00634" fill="#161616"/>
</svg>
