<svg width="76" height="60" viewBox="0 0 76 60" fill="none" xmlns="http://www.w3.org/2000/svg">
<path d="M22.7701 0.656006C22.3684 0.656045 21.9831 0.811459 21.699 1.08807C21.415 1.36467 21.2554 1.73982 21.2553 2.13101V30.156H10.6521C10.2504 30.156 9.8651 30.3115 9.58103 30.5881C9.29697 30.8647 9.13737 31.2398 9.13733 31.631V37.1133L0.122795 57.5991C0.0239526 57.8233 -0.0162077 58.068 0.00591274 58.3111C0.0280331 58.5542 0.111743 58.7881 0.249541 58.9919C0.38734 59.1958 0.574921 59.3632 0.795476 59.479C1.01603 59.5949 1.26267 59.6557 1.51329 59.656H74.4846C74.7395 59.6561 74.9903 59.5935 75.2138 59.4741C75.4373 59.3547 75.6262 59.1823 75.7631 58.9729C75.9 58.7635 75.9804 58.5239 75.9968 58.2762C76.0133 58.0285 75.9653 57.7807 75.8573 57.5559L66.6978 38.4471V25.731C66.6978 25.3398 66.5382 24.9647 66.2541 24.6881C65.97 24.4115 65.5848 24.256 65.1831 24.256H56.0946V13.931C56.0945 13.5398 55.9349 13.1647 55.6509 12.8881C55.3668 12.6115 54.9815 12.456 54.5798 12.456H43.9766V2.13101C43.9765 1.73982 43.8169 1.36467 43.5329 1.08807C43.2488 0.811459 42.8635 0.656045 42.4618 0.656006H22.7701ZM24.2848 3.60601H40.9471V12.456H34.8881C34.4863 12.456 34.1011 12.6115 33.817 12.8881C33.533 13.1647 33.3734 13.5398 33.3733 13.931V30.156H24.2848V3.60601ZM27.3143 6.55601V9.50601H30.3438V6.55601H27.3143ZM34.8881 6.55601V9.50601H37.9176V6.55601H34.8881ZM27.3143 12.456V15.406H30.3438V12.456H27.3143ZM36.4028 15.406H53.0651V24.256H47.0061C46.6043 24.256 46.2191 24.4115 45.935 24.6881C45.651 24.9647 45.4914 25.3398 45.4913 25.731V50.806H36.4028V31.631V15.406ZM27.3143 18.356V21.306H30.3438V18.356H27.3143ZM39.4323 18.356V21.306H42.4618V18.356H39.4323ZM47.0061 18.356V21.306H50.0356V18.356H47.0061ZM27.3143 24.256V27.206H30.3438V24.256H27.3143ZM39.4323 24.256V27.206H42.4618V24.256H39.4323ZM48.5208 27.206H63.6683V50.806H51.5503H48.5208V27.206ZM39.4323 30.156V33.106H42.4618V30.156H39.4323ZM51.5503 30.156V33.106H54.5798V30.156H51.5503ZM57.6093 30.156V33.106H60.6388V30.156H57.6093ZM12.1668 33.106H33.3733V50.806H12.1668V33.106ZM15.1963 36.056V39.006H18.2258V36.056H15.1963ZM21.2553 36.056V39.006H24.2848V36.056H21.2553ZM27.3143 36.056V39.006H30.3438V36.056H27.3143ZM39.4323 36.056V39.006H42.4618V36.056H39.4323ZM51.5503 36.056V39.006H54.5798V36.056H51.5503ZM57.6093 36.056V39.006H60.6388V36.056H57.6093ZM15.1963 41.956V44.906H18.2258V41.956H15.1963ZM21.2553 41.956V44.906H24.2848V41.956H21.2553ZM27.3143 41.956V44.906H30.3438V41.956H27.3143ZM39.4323 41.956V44.906H42.4618V41.956H39.4323ZM51.5503 41.956V44.906H54.5798V41.956H51.5503ZM57.6093 41.956V44.906H60.6388V41.956H57.6093ZM9.13733 44.6064V52.281C9.13737 52.6722 9.29697 53.0473 9.58103 53.3239C9.8651 53.6006 10.2504 53.756 10.6521 53.756H34.8881H51.5503H65.1831C65.5848 53.756 65.97 53.6006 66.2541 53.3239C66.5382 53.0473 66.6978 52.6722 66.6978 52.281V45.4217L72.1059 56.706H3.81204L9.13733 44.6064Z" fill="#09A66C" fill-opacity="0.6"/>
</svg>
